# xmcd
#
# Track frame offsets:
#        150
#        22115
#        37874
#        67886
#        84246
#        111004
#        131384
#        157345
#        185549
#        214619
#        267296
#        290475
#
# Disc length: 4066 seconds
#
# Revision: 0
# Processed by: cddbd v1.5.1PL2 Copyright (c) Steve Scherf et al.
# Submitted via: ExactAudioCopy v0.95b3
#
DISCID=a30fe00c
DTITLE=Ikon - Ikon
DYEAR=2003
DGENRE=pop
TTITLE0=Mogul Modal
TTITLE1=Thinking Of You
TTITLE2=Calling You
TTITLE3=Vai E Vem
TTITLE4=Do You Dream ?
TTITLE5=The Dove
TTITLE6=Prozac
TTITLE7=Statique
TTITLE8=Last Night
TTITLE9=Indulgence
TTITLE10=Tricolour
TTITLE11=The Dove (Radio Edit)
EXTD=
EXTT0=
EXTT1=
EXTT2=
EXTT3=
EXTT4=
EXTT5=
EXTT6=
EXTT7=
EXTT8=
EXTT9=
EXTT10=
EXTT11=
PLAYORDER=
